<svg width="23" height="18" viewBox="0 0 23 18" fill="none" xmlns="http://www.w3.org/2000/svg">
    <path d="M19.9716 2.84172C19.4821 2.41589 18.901 2.0781 18.2613 1.84763C17.6217 1.61716 16.9361 1.49854 16.2437 1.49854C15.5513 1.49854 14.8657 1.61716 14.2261 1.84763C13.5864 2.0781 13.0053 2.41589 12.5158 2.84172L11.5 3.72506L10.4841 2.84172C9.49541 1.98198 8.15444 1.49898 6.7562 1.49898C5.35796 1.49898 4.01699 1.98198 3.02828 2.84172C2.03958 3.70147 1.48413 4.86753 1.48413 6.08339C1.48413 7.29925 2.03958 8.46531 3.02828 9.32506L11.5 16.6917L19.9716 9.32506C20.4613 8.89943 20.8498 8.39407 21.1148 7.83785C21.3799 7.28164 21.5163 6.68546 21.5163 6.08339C21.5163 5.48132 21.3799 4.88514 21.1148 4.32893C20.8498 3.77271 20.4613 3.26735 19.9716 2.84172Z" stroke="#F5F5F5" stroke-width="2" stroke-linecap="round" stroke-linejoin="round"/>
</svg>
